<svg viewBox="0 0 102.96 101.93" xmlns="http://www.w3.org/2000/svg"><path d="m58.81 0-7.33 3.44-7.33-3.44-6.06 5.36-8-1.24-4.3 6.86-8.02 1.07-2.2 7.79-7.4 3.29.07 8.09-6.17 5.23 2.37 7.75-4.44 6.76 4.44 6.77-2.37 7.74 6.17 5.24-.07 8.09 7.39 3.28 2.21 7.79 8.02 1.07 4.3 6.86 8-1.23 6.06 5.35 7.33-3.44 7.33 3.44 6.06-5.35 8 1.23 4.3-6.85 8.02-1.08 2.2-7.79 7.4-3.28-.07-8.09 6.17-5.24-2.37-7.74 4.44-6.77-4.44-6.76 2.37-7.75-6.17-5.23.07-8.09-7.4-3.29-2.2-7.78-8.02-1.08-4.3-6.85-8 1.23z" fill="#fa0007"/><g fill="#fff"><path d="m25.37 42.6c0 .36-.42.58-1.29.69s-1.88 1.56-4.24 4.54a12.38 12.38 0 0 0 -1 1.45l-.2 2.62c-.08.93 0 1.73.35 1.79.89.17 1.3.42 1.26.91-.05.68-1.24.82-3.47.65s-3.38-.5-3.33-1.19c0-.49.49-.65 1.39-.67.4 0 .56-.81.63-1.74l.2-2.48a10.28 10.28 0 0 0 -.91-1.9c-2.27-3.9-2.92-4.85-3.46-5s-1-.41-1-.8c.05-.66 1.26-.94 3.6-.76s3.33.64 3.28 1.23-.46.67-1.13.71c-.28 0-.28.27 0 1a22.85 22.85 0 0 0 2.11 3.61 27 27 0 0 0 2.58-3.51c.24-.41.33-.7-.06-.79-.75-.18-1.15-.4-1.11-.83.05-.61 1.26-.85 3.18-.69 1.72.15 2.66.62 2.62 1.16z"/><path d="m35.61 55.37c0 .25-.16.43-.48.59a8.1 8.1 0 0 1 -3.08.56c-.74-.06-.82-.56-.74-1.52l.06-.74a3.77 3.77 0 0 1 -3.66 2c-1.86-.15-3.09-1.38-2.89-3.92l.23-2.89c.06-.77.1-1.77-.23-1.83-.72-.15-.93-.47-.9-.78a.65.65 0 0 1 .51-.55 9.56 9.56 0 0 1 2.94-.29c.82.06.88.5.8 1.51-.05.69-.14 1.58-.24 2.78l-.09 1.19c-.15 1.81.17 2.84 1.42 2.94 1.07.08 2.17-.67 2.36-3.08l.11-1.3c.06-.77.06-1.77-.25-1.83-.78-.16-1-.47-1-.79s.23-.43.57-.54a8.7 8.7 0 0 1 3-.35c.82.06.88.5.8 1.51-.05.69-.15 1.66-.24 2.85l-.16 2c-.06.77-.1 1.69.21 1.75.74.14.97.41.95.73z"/><path d="m55.4 57.43c0 .68-1.16.79-2.76.66s-2.64-.45-2.64-1.09c0-.45.43-.6 1-.63.29 0 .37-.76.44-1.64l.17-2.09c.15-1.93-.19-2.86-1.4-3-1-.07-2 .56-2.24 2.54l-.18 2.22c-.09 1.14-.13 1.6.16 1.69.58.16.92.33.88.78 0 .68-1.16.79-2.76.66s-2.68-.45-2.63-1.09c0-.45.42-.6 1-.63.29 0 .37-.76.44-1.64l.12-2.05c.15-1.89-.15-2.86-1.4-3-1-.08-2.12.68-2.31 3.1l-.13 1.66c-.09 1.13-.13 1.6.16 1.68.58.17.92.33.88.78 0 .68-1.16.79-2.76.67s-2.68-.45-2.63-1.1c0-.45.42-.59 1-.63.3 0 .38-.75.45-1.63l.24-3c.06-.76.09-1.7-.22-1.77-.73-.15-1-.43-.94-.74a.68.68 0 0 1 .48-.59 8.09 8.09 0 0 1 3.06-.55c.78.06.82.55.74 1.51l-.06.76a3.77 3.77 0 0 1 3.68-2 2.81 2.81 0 0 1 2.76 2.61 3.93 3.93 0 0 1 3.85-2.09c1.77.14 3 1.38 2.77 3.91l-.26 3.3c-.09 1.13-.12 1.6.16 1.68.58.13.92.32.88.75z"/><path d="m75.23 59c-.06.68-1.17.79-2.77.66s-2.68-.44-2.62-1.09c0-.45.42-.59 1-.63.3 0 .37-.75.44-1.63l.17-2.09c.15-1.94-.19-2.87-1.4-3-1-.07-2 .56-2.24 2.54l-.21 2.24c-.09 1.13-.13 1.6.16 1.68.58.16.92.33.88.78 0 .68-1.16.79-2.76.66s-2.68-.45-2.63-1.09c0-.45.42-.6 1-.63.29 0 .37-.76.44-1.64l.17-2.09c.15-1.89-.15-2.86-1.4-3-1-.08-2.12.68-2.31 3.1l-.15 1.72c-.09 1.14-.13 1.6.16 1.68.58.17.92.33.88.78 0 .69-1.16.8-2.76.67s-2.68-.45-2.63-1.09c0-.45.42-.6 1-.64.29 0 .37-.75.44-1.63l.24-3c.06-.76.09-1.7-.22-1.76-.73-.16-1-.43-.94-.75a.68.68 0 0 1 .48-.59 8.09 8.09 0 0 1 3.07-.56c.78.06.82.56.75 1.51l-.07.76a3.77 3.77 0 0 1 3.69-2 2.84 2.84 0 0 1 2.76 2.62 3.92 3.92 0 0 1 3.84-2.1c1.77.14 3 1.38 2.77 3.92l-.26 3.26c-.09 1.13-.12 1.6.16 1.68.56.14.9.3.87.75z"/><path d="m87.48 51.62c0 .45-.36.58-.9.67s-.84.7-1.25 1.61c-1 2.15-1.55 3.42-2.52 5.52-1.28 2.75-2.29 4.6-4.56 4.42a2.15 2.15 0 0 1 -2.17-2.1 1.37 1.37 0 0 1 1.46-1.36 1.11 1.11 0 0 1 1.11 1.17v.53a.34.34 0 0 0 .34.34c.47 0 .8-.35 1.1-1.15.17-.49 0-1.14-.52-2.4s-1.54-4.15-2.09-5.82c-.35-1.07-.46-1.39-.75-1.48-.48-.13-.79-.41-.76-.8.05-.63 1.05-.86 3-.71s2.79.57 2.74 1.16-.4.61-1 .65c-.28 0-.21.79 0 1.53a31.76 31.76 0 0 0 1.48 4.2 35.37 35.37 0 0 0 1.76-4.12c.2-.59.36-1.31 0-1.42-.55-.16-.87-.34-.84-.77s1-.82 2.3-.72 2.11.54 2.07 1.05z"/><path d="m88.2 59.18a1.71 1.71 0 1 1 1.58 1.88 1.72 1.72 0 0 1 -1.58-1.88zm1.21-4.11a24.38 24.38 0 0 1 -.41-5.82c.15-1.82.88-2.65 1.88-2.57s1.57 1 1.42 2.83a24.09 24.09 0 0 1 -1.27 5.69c-.25.69-.55.94-.9.92s-.58-.35-.72-1.05z"/></g></svg>