<svg height="30" viewBox="0 0 130 30" width="130" xmlns="http://www.w3.org/2000/svg"><g fill="#ff0700" fill-rule="evenodd"><g transform="matrix(0 1 -1 0 130 0)"><path d="m0 60h15v10h-15z"/><path d="m0 20h15v10h-15z"/><path d="m15 50h15v10h-15z"/><path d="m15 10h15v10h-15z"/><path d="m15 30h15v10h-15z"/><path d="m0 40h15v10h-15z"/><path d="m0 0h15v10h-15z"/></g><g transform="matrix(0 1 -1 0 70 0)"><path d="m0 60h15v10h-15z"/><path d="m0 20h15v10h-15z"/><path d="m15 50h15v10h-15z"/><path d="m15 10h15v10h-15z"/><path d="m15 30h15v10h-15z"/><path d="m0 40h15v10h-15z"/><path d="m0 0h15v10h-15z"/></g></g></svg>