<?xml version="1.0" encoding="UTF-8"?>
<svg width="130px" height="30px" viewBox="0 0 130 30" version="1.1" xmlns="http://www.w3.org/2000/svg" xmlns:xlink="http://www.w3.org/1999/xlink">
    <!-- Generator: Sketch 56.3 (81716) - https://sketch.com -->
    <title>Group 3 Copy</title>
    <desc>Created with Sketch.</desc>
    <g id="Page-1" stroke="none" stroke-width="1" fill="none" fill-rule="evenodd">
        <g id="Desktop" transform="translate(-499.000000, -2288.000000)" fill="#FF0700">
            <g id="Group-3-Copy" transform="translate(499.000000, 2288.000000)">
                <g id="Group-2" transform="translate(95.000000, 15.000000) rotate(-270.000000) translate(-95.000000, -15.000000) translate(80.000000, -20.000000)">
                    <rect id="Rectangle" x="0" y="60" width="15" height="10"></rect>
                    <rect id="Rectangle-Copy-4" x="0" y="20" width="15" height="10"></rect>
                    <rect id="Rectangle-Copy" x="15" y="50" width="15" height="10"></rect>
                    <rect id="Rectangle-Copy-5" x="15" y="10" width="15" height="10"></rect>
                    <rect id="Rectangle-Copy-3" x="15" y="30" width="15" height="10"></rect>
                    <rect id="Rectangle-Copy-2" x="0" y="40" width="15" height="10"></rect>
                    <rect id="Rectangle-Copy-6" x="0" y="0" width="15" height="10"></rect>
                </g>
                <g id="Group-2-Copy" transform="translate(35.000000, 15.000000) rotate(-270.000000) translate(-35.000000, -15.000000) translate(20.000000, -20.000000)">
                    <rect id="Rectangle" x="0" y="60" width="15" height="10"></rect>
                    <rect id="Rectangle-Copy-4" x="0" y="20" width="15" height="10"></rect>
                    <rect id="Rectangle-Copy" x="15" y="50" width="15" height="10"></rect>
                    <rect id="Rectangle-Copy-5" x="15" y="10" width="15" height="10"></rect>
                    <rect id="Rectangle-Copy-3" x="15" y="30" width="15" height="10"></rect>
                    <rect id="Rectangle-Copy-2" x="0" y="40" width="15" height="10"></rect>
                    <rect id="Rectangle-Copy-6" x="0" y="0" width="15" height="10"></rect>
                </g>
            </g>
        </g>
    </g>
</svg>