<svg width="96" height="45" viewBox="0 0 96 45" fill="none" xmlns="http://www.w3.org/2000/svg">
<g clip-path="url(#clip0_270_3)">
<path d="M54.4536 0.0957247C57.2657 0.0957247 58.1546 0.248758 58.964 3.04162C59.8227 6.0121 60.4373 9.01812 61.093 12.0378C61.1753 12.4176 61.3673 14.5191 62.0751 14.0846C62.6458 13.7348 62.6815 10.2943 62.7446 9.71223C62.8982 8.28028 63.0326 6.84559 63.1396 5.40817C63.2329 4.16204 62.9887 2.28738 63.6582 1.15329C64.5169 -0.300523 69.2988 -0.322384 70.2289 1.1205C70.8846 2.13981 70.5499 3.74666 70.4566 4.87255C70.3194 6.51493 70.1713 8.1573 69.9957 9.79695C69.329 16.1178 68.2261 22.3785 66.8297 28.5818C66.0971 31.8338 65.2851 35.0693 64.4236 38.2912C64.0944 39.5182 63.8968 41.0021 63.2713 42.1252C62.5553 43.4069 61.5264 43.3304 60.1794 43.2921C59.0874 43.2621 57.3837 43.5408 56.4948 42.7702C55.5538 41.9503 55.8199 40.1276 55.7733 39.0564C55.6388 35.9083 55.6004 32.7465 55.2493 29.612C55.1779 28.9753 55.1532 27.4996 54.4152 28.4971C53.647 29.5328 53.5236 32.1043 53.2218 33.3422C52.5579 36.0504 52.2286 39.3378 50.9447 41.8356C50.4837 42.7319 49.9296 42.9615 48.9501 43.0462C47.8088 43.1473 45.3095 43.4643 44.3136 42.8904C42.3657 41.7618 44.2477 37.6135 44.6428 35.9902C46.3685 28.8742 47.8609 21.6789 48.8157 14.4153C49.2684 10.9693 49.6607 7.49052 49.8061 4.0172C49.8473 3.01702 49.6964 1.47029 50.492 0.672333C51.4028 -0.240402 53.3096 0.112121 54.4536 0.112121V0.106656V0.0957247Z" fill="#FFF2F2"/>
<path d="M20.991 26.2944C21.002 19.151 22.5548 11.1277 26.9033 5.26322C28.8128 2.69444 31.5947 0.379814 34.8979 0.0436871C38.064 -0.278776 41.1422 1.24063 43.0462 3.71649C47.4578 9.44704 47.0737 17.8365 45.359 24.4552C43.6992 30.8553 40.2149 38.2665 34.3602 41.8737C31.5124 43.6281 28.0556 43.9315 25.4438 41.5731C22.4945 38.9087 21.5425 34.2357 21.1501 30.4782C21.0157 29.1856 21.0459 27.893 20.9883 26.2971L20.991 26.2944ZM36.8266 19.8314C36.8266 18.4514 36.7334 17.9213 36.2971 17.0741C34.9912 14.5354 32.7937 16.3035 31.7731 17.9759C30.5577 19.9708 30.2751 22.3456 30.5687 24.6274C30.8567 26.8464 32.64 28.6035 34.577 26.5212C36.2039 24.7695 36.876 22.157 36.8266 19.8314Z" fill="#FFF2F2"/>
<path d="M8.41968 0.787073C10.6172 1.01116 12.7352 0.680497 14.8779 1.4156C16.5625 1.99494 18.0714 3.00059 19.1112 4.45441C21.4679 7.74189 21.5941 12.6909 20.7381 16.4867C20.2278 18.7466 19.1469 20.6295 18.2333 22.7255C17.3169 24.827 17.8492 26.8492 18.1317 29.0272C18.439 31.391 18.6832 33.7603 18.8972 36.135C19.0289 37.5943 19.9699 40.8599 18.8423 42.0651C17.8766 43.0981 15.5419 42.4477 14.321 42.5187C13.3855 42.5706 12.1207 42.8521 11.2675 42.2673C10.3648 41.647 10.3456 40.133 10.2414 39.1766C10.1508 38.354 10.1865 33.733 9.33601 33.651C8.86138 33.6073 8.46083 39.4389 8.37029 40.0237C8.0685 41.964 7.30855 42.4777 5.36613 42.5788C3.49779 42.6772 0.946316 43.2839 0.597888 40.9474C0.312562 39.0345 0.729577 36.851 0.853036 34.9381C1.02862 32.2491 1.17128 29.5601 1.35236 26.8711C1.72548 21.3427 2.05744 15.8226 2.32082 10.2888C2.43879 7.83481 2.03275 4.87798 2.63633 2.48684C3.16034 0.401757 5.48136 0.795272 7.19332 0.784341C7.55821 0.784341 7.92584 0.784341 8.41693 0.784341L8.41968 0.787073ZM10.609 16.708C10.6282 16.9622 10.631 17.3256 10.6831 17.6836C10.8669 18.9489 11.989 17.7738 12.2414 17.2901C12.609 16.5823 12.7462 15.604 12.5761 14.8279C12.4197 14.1228 11.9643 13.1582 11.1166 13.7157C10.4746 14.1365 10.6666 16.0358 10.609 16.7107V16.708Z" fill="#FFF2F2"/>
<path d="M83.1609 40.4609C83.2377 37.7282 83.877 34.3696 83.3475 31.6861C83.128 30.5793 82.9908 30.6258 82.5738 31.6041C81.9757 33.0087 81.7864 34.7112 81.4242 36.1924C81.0895 37.5533 80.7493 38.9142 80.3844 40.2669C80.1211 41.2507 79.9729 42.6444 79.3254 43.4751C78.3762 44.6966 74.9852 44.6912 74.0359 43.4778C72.8974 42.024 74.7273 38.1763 75.1333 36.605C75.8768 33.7329 76.5682 30.8471 77.1937 27.945C78.4996 21.8919 79.4955 15.7651 80.1265 9.60556C80.2774 8.12168 80.4064 6.6378 80.4997 5.15119C80.5628 4.16467 80.4229 2.72179 81.084 1.87737C82.2692 0.366167 85.9977 1.2707 86.7384 2.83929C87.7124 4.89158 87.674 7.76369 87.9675 9.96901C88.1349 11.2179 88.1267 12.6553 88.4888 13.8632C88.9854 15.5165 89.2104 13.8112 89.342 12.9204C89.7371 10.2013 89.8386 7.46035 90.1185 4.73035C90.2145 3.79029 90.22 2.81197 91.2515 2.44578C92.0911 2.14518 94.028 2.28728 94.7084 2.91035C96.1871 4.26305 95.1583 8.43594 95.0047 10.1986C94.7495 13.1089 94.4121 16.0084 93.9978 18.9023C93.0239 25.7041 91.6768 32.4294 90.0471 39.1055C89.5643 41.084 89.5176 44.8743 86.8976 44.9891C85.9044 45.0328 84.2748 45.0218 83.5806 44.1774C82.8262 43.2592 83.1773 41.5513 83.1773 40.4664C83.1719 40.4664 83.1664 40.4664 83.1609 40.4664V40.4609Z" fill="#FFF2F2"/>
<path d="M79.2364 4.16479C78.8167 11.0376 77.8756 17.8804 76.5423 24.633C75.8427 28.1774 75.0361 31.7053 74.1637 35.2114C73.7713 36.7882 73.3598 38.3595 72.9181 39.9227C72.5971 41.054 72.4105 42.9615 71.1979 43.5408C70.1444 44.0436 68.3282 43.6775 67.1924 43.59C65.6176 43.467 64.9317 42.9478 65.1484 41.3C65.5654 38.1464 66.8522 34.9682 67.5957 31.8693C69.2116 25.1249 70.5449 18.2767 71.3214 11.382C71.5381 9.46357 71.6917 7.53699 71.8509 5.61314C71.9551 4.36155 71.6835 2.36665 72.4654 1.30635C73.2583 0.22965 74.8276 0.642293 75.9826 0.713344C77.3791 0.798059 78.9868 0.724275 79.2282 2.45956C79.3078 3.02797 79.2392 3.59365 79.2364 4.16206V4.16479Z" fill="#FFF2F2"/>
</g>
<defs>
<clipPath id="clip0_270_3">
<rect width="95" height="45" fill="white" transform="translate(0.5)"/>
</clipPath>
</defs>
</svg>
